<svg xmlns="http://www.w3.org/2000/svg" width="320" height="80" viewBox="0 0 320 80" role="img" aria-labelledby="title desc">
<title id="title">Logo Calavera Cantina</title>
<desc id="desc">Skull icon with the text Calavera Cantina</desc>
<rect width="320" height="80" fill="none"/>
<g transform="translate(12,10)" fill="none" stroke="#1e1a16" stroke-width="3" stroke-linecap="round" stroke-linejoin="round">
  <circle cx="28" cy="28" r="22" fill="#fff7ef"/>
  <circle cx="20" cy="24" r="5" fill="#1e1a16"/>
  <circle cx="36" cy="24" r="5" fill="#1e1a16"/>
  <path d="M24 35h8l-4 6z" fill="#1e1a16"/>
  <path d="M14 16c4-8 10-12 14-12 4 0 10 4 14 12"/>
  <path d="M10 18c-5-2-8-5-8-9m44 9c5-2 8-5 8-9"/>
  <path d="M18 44c6 4 18 4 24 0"/>
  <path d="M18 50h20"/>
  <path d="M20 50v6m4-6v6m4-6v6m4-6v6m4-6v6"/>
</g>
<text x="78" y="36" font-family="Poppins, Arial, sans-serif" font-size="24" font-weight="700" fill="#1e1a16">Calavera</text>
<text x="78" y="60" font-family="Poppins, Arial, sans-serif" font-size="20" font-weight="500" fill="#bf5b34" letter-spacing="1">CANTINA</text>
</svg>
